<svg xmlns="http://www.w3.org/2000/svg" xmlns:xlink="http://www.w3.org/1999/xlink" width="64px" height="64px" viewBox="0 0 64 64" version="1.1">
<path style=" stroke:none;fill-rule:nonzero;fill:rgb(0%,0%,0%);fill-opacity:1;" d="M 32 2 C 15.433594 2 2 15.433594 2 32 C 2 48.566406 15.433594 62 32 62 C 48.566406 62 62 48.566406 62 32 C 62 15.433594 48.566406 2 32 2 Z M 58 32 C 58 32.003906 58 32.003906 58 32.011719 C 58 43.886719 50.039062 53.902344 39.15625 57.011719 L 38.972656 57.054688 L 38.972656 47.328125 C 38.972656 45.019531 38.355469 43.332031 37.117188 42.261719 C 38.492188 42.121094 39.738281 41.894531 40.945312 41.582031 L 40.773438 41.617188 C 42.050781 41.261719 43.164062 40.785156 44.199219 40.1875 L 44.128906 40.226562 C 45.261719 39.601562 46.21875 38.8125 47.007812 37.871094 L 47.019531 37.851562 C 47.792969 36.914062 48.425781 35.664062 48.910156 34.105469 C 49.398438 32.550781 49.644531 30.757812 49.644531 28.734375 C 49.644531 25.859375 48.703125 23.40625 46.824219 21.382812 C 47.703125 19.21875 47.609375 16.792969 46.539062 14.105469 C 45.871094 13.890625 44.910156 14.019531 43.648438 14.496094 C 42.382812 14.964844 41.300781 15.492188 40.28125 16.113281 L 40.367188 16.066406 L 39.007812 16.921875 C 36.953125 16.332031 34.59375 15.996094 32.15625 15.996094 C 29.714844 15.996094 27.355469 16.332031 25.121094 16.964844 L 25.300781 16.921875 C 23.726562 13.917969 19.738281 13.726562 17.734375 14.105469 C 16.402344 16.230469 16.5625 19.582031 17.484375 21.382812 C 15.605469 23.40625 14.667969 25.859375 14.667969 28.734375 C 14.667969 30.757812 14.910156 32.542969 15.398438 34.089844 C 15.882812 35.632812 16.507812 36.882812 17.273438 37.835938 C 18.0625 38.800781 19.011719 39.601562 20.097656 40.199219 L 20.148438 40.222656 C 21.109375 40.785156 22.222656 41.261719 23.398438 41.59375 L 23.5 41.617188 C 24.535156 41.894531 25.78125 42.121094 27.054688 42.25 L 27.15625 42.257812 C 26.207031 43.117188 25.625 44.339844 25.40625 45.9375 C 24.945312 46.160156 24.410156 46.34375 23.847656 46.464844 L 23.800781 46.472656 C 23.230469 46.585938 22.574219 46.652344 21.90625 46.652344 C 21.859375 46.652344 21.8125 46.652344 21.761719 46.652344 L 21.769531 46.652344 C 20.984375 46.652344 20.207031 46.394531 19.433594 45.882812 C 18.660156 45.371094 18 44.625 17.449219 43.652344 C 17.007812 42.902344 16.429688 42.28125 15.738281 41.808594 L 15.71875 41.792969 C 15.019531 41.316406 14.429688 41.03125 13.953125 40.9375 L 13.632812 40.867188 C 13.578125 40.851562 13.515625 40.84375 13.449219 40.84375 C 13.128906 40.84375 12.851562 41.027344 12.71875 41.289062 L 12.714844 41.296875 L 12.671875 41.378906 C 12.613281 41.488281 12.582031 41.617188 12.582031 41.757812 C 12.582031 42.089844 12.777344 42.375 13.058594 42.507812 L 13.0625 42.507812 C 13.585938 42.746094 14.105469 43.199219 14.617188 43.867188 C 15.039062 44.394531 15.414062 44.992188 15.71875 45.632812 L 15.742188 45.683594 L 16.097656 46.507812 C 16.398438 47.402344 16.945312 48.152344 17.660156 48.691406 L 17.667969 48.703125 C 18.335938 49.222656 19.144531 49.601562 20.027344 49.765625 L 20.0625 49.769531 C 20.796875 49.914062 21.652344 50.003906 22.527344 50.019531 L 22.542969 50.019531 C 22.640625 50.023438 22.757812 50.027344 22.875 50.027344 C 23.457031 50.027344 24.027344 49.980469 24.582031 49.886719 L 24.519531 49.894531 L 25.339844 49.753906 C 25.339844 50.65625 25.347656 51.714844 25.359375 52.929688 C 25.367188 53.667969 25.375 55.667969 25.375 57.148438 C 14.140625 54.105469 6.011719 44.003906 6.011719 32 C 6.011719 21.296875 12.476562 12.101562 21.714844 8.109375 L 21.882812 8.046875 C 24.871094 6.746094 28.351562 5.992188 32.011719 5.992188 C 46.367188 5.992188 58.003906 17.628906 58.003906 31.984375 C 58.003906 31.992188 58.003906 32 58.003906 32.007812 Z M 58 32 "/>
</svg>
