<?xml version="1.0" encoding="utf-8"?>
<svg version="1.1" xmlns="http://www.w3.org/2000/svg" xmlns:xlink="http://www.w3.org/1999/xlink" x="0px" y="0px" viewBox="0 0 256 256" enable-background="new 0 0 256 256" xml:space="preserve">
<path fill="#000000" d="M10,10L10,10L10,10z"/><path fill="#000000" d="M130.4,14.8c-63.8,0-115.6,51.8-115.6,115.6c0,63.8,51.8,115.6,115.6,115.6c63.8,0,115.6-51.8,115.6-115.6C246,66.6,194.2,14.8,130.4,14.8z M102.1,178.3H78.7V103h23.4V178.3z M90.3,93.8c-7.4,0-12.2-5.2-12.2-11.7c0-6.6,4.9-11.7,12.5-11.7c7.6,0,12.2,5.1,12.3,11.7C102.9,88.5,98.1,93.8,90.3,93.8z M187.6,178.3h-23.4v-41.7c0-9.7-3.4-16.3-11.9-16.3c-6.5,0-10.3,4.5-12,8.8c-0.6,1.5-0.8,3.7-0.8,5.9v43.4h-23.4V127c0-9.4-0.3-17.3-0.6-24h20.3l1.1,10.5h0.5c3.1-4.9,10.6-12.2,23.3-12.2c15.4,0,26.9,10.3,26.9,32.5L187.6,178.3L187.6,178.3z"/>
</svg>